ffmpeg started on 2025-06-19 at 10:33:07
Report written to "D:\Convert\FFMetrics\reports\psnr_report-6.txt"
Log level: 32
Command line:
ffmpeg -hide_banner -nostdin -i "G:\\\xc0\xed\xe8\xec\xe5\\[\xd2\xee\xef-4]\\RErideD - \xc4\xe5\xf0\xf0\xe8\xe4\xe0, \xef\xee\xea\xee\xf0\xe8\xe2\xf8\xe8\xe9 \xe2\xf0\xe5\xec\xff\\RErideD_Koku_Koe_no_Derrida_[07]_[AniLibria_TV]_[WEBRip_720p]_HEVC.mkv" -i "G:\\\xc0\xed\xe8\xec\xe5\\[\xd2\xee\xef-4]\\RErideD - \xc4\xe5\xf0\xf0\xe8\xe4\xe0, \xef\xee\xea\xee\xf0\xe8\xe2\xf8\xe8\xe9 \xe2\xf0\xe5\xec\xff\\RErideD_Koku_Koe_no_Derrida_[07]_[AniLibria_TV]_[WEBRip_720p].mkv" -lavfi "[0:v]settb=AVTB,setpts=PTS-STARTPTS,format=pix_fmts=yuv420p10,fps=24000/1001,scale=1280:720:flags=bicubic[main];[1:v]settb=AVTB,setpts=PTS-STARTPTS,format=pix_fmts=yuv420p,fps=24000/1001,scale=1280:720:flags=bicubic[ref];[main][ref]psnr=eof_action=endall:stats_file='D\\:/Convert/FFMetrics/logs/psnr_logfile-6.txt'" -f null -
Input #0, matroska,webm, from 'G:\Аниме\[Топ-4]\RErideD - Деррида, покоривший время\RErideD_Koku_Koe_no_Derrida_[07]_[AniLibria_TV]_[WEBRip_720p]_HEVC.mkv':
  Metadata:
    ENCODER         : Lavf61.7.100
  Duration: 00:23:40.13, start: -0.021000, bitrate: 647 kb/s
  Stream #0:0(jpn): Video: hevc (Main 10), yuv420p10le(tv, bt709, progressive), 1280x720 [SAR 1:1 DAR 16:9], 23.98 fps, 23.98 tbr, 1k tbn (default)
      Metadata:
        ENCODER         : Lavc61.19.100 libx265
        BPS             : 448585
        DURATION        : 00:23:40.043708333
        NUMBER_OF_FRAMES: 34047
        NUMBER_OF_BYTES : 79626316
        _STATISTICS_WRITING_APP: mkvpropedit v66.0.0 ('Josie') 64-bit
        _STATISTICS_WRITING_DATE_UTC: 2025-06-17 15:40:58
        _STATISTICS_TAGS: BPS DURATION NUMBER_OF_FRAMES NUMBER_OF_BYTES
  Stream #0:1(rus): Audio: aac (LC), 48000 Hz, stereo, fltp (default) (forced)
      Metadata:
        title           : AniLibria.TV
        ENCODER         : Lavc61.19.100 aac
        BPS             : 195143
        DURATION        : 00:23:40.074000000
        NUMBER_OF_FRAMES: 66567
        NUMBER_OF_BYTES : 34639787
        _STATISTICS_WRITING_APP: mkvpropedit v66.0.0 ('Josie') 64-bit
        _STATISTICS_WRITING_DATE_UTC: 2025-06-17 15:40:58
        _STATISTICS_TAGS: BPS DURATION NUMBER_OF_FRAMES NUMBER_OF_BYTES
  Stream #0:2(rus): Subtitle: ass (ssa) (default) (forced)
      Metadata:
        title           : Надписи
        BPS             : 8
        DURATION        : 00:20:40.920000000
        NUMBER_OF_FRAMES: 11
        NUMBER_OF_BYTES : 1242
        _STATISTICS_WRITING_APP: mkvpropedit v66.0.0 ('Josie') 64-bit
        _STATISTICS_WRITING_DATE_UTC: 2025-06-17 15:40:58
        _STATISTICS_TAGS: BPS DURATION NUMBER_OF_FRAMES NUMBER_OF_BYTES
  Stream #0:3(rus): Subtitle: ass (ssa)
      Metadata:
        title           : Полные субтитры
        BPS             : 128
        DURATION        : 00:23:13.600000000
        NUMBER_OF_FRAMES: 320
        NUMBER_OF_BYTES : 22347
        _STATISTICS_WRITING_APP: mkvpropedit v66.0.0 ('Josie') 64-bit
        _STATISTICS_WRITING_DATE_UTC: 2025-06-17 15:40:58
        _STATISTICS_TAGS: BPS DURATION NUMBER_OF_FRAMES NUMBER_OF_BYTES
Input #1, matroska,webm, from 'G:\Аниме\[Топ-4]\RErideD - Деррида, покоривший время\RErideD_Koku_Koe_no_Derrida_[07]_[AniLibria_TV]_[WEBRip_720p].mkv':
  Metadata:
    encoder         : libebml v1.4.2 + libmatroska v1.6.4
    creation_time   : 2024-12-15T11:01:43.000000Z
  Duration: 00:23:40.13, start: 0.000000, bitrate: 1703 kb/s
  Stream #1:0(jpn): Video: h264 (High), yuv420p(progressive), 1280x720 [SAR 1:1 DAR 16:9], 23.98 fps, 23.98 tbr, 1k tbn (default)
      Metadata:
        BPS             : 1502904
        DURATION        : 00:23:40.045000000
        NUMBER_OF_FRAMES: 34047
        NUMBER_OF_BYTES : 266774070
        _STATISTICS_WRITING_APP: mkvmerge v66.0.0 ('Josie') 64-bit
        _STATISTICS_WRITING_DATE_UTC: 2024-12-15 11:01:43
        _STATISTICS_TAGS: BPS DURATION NUMBER_OF_FRAMES NUMBER_OF_BYTES
  Stream #1:1(rus): Audio: aac (LC), 48000 Hz, stereo, fltp (default) (forced)
      Metadata:
        title           : AniLibria.TV
        BPS             : 195530
        DURATION        : 00:23:40.074000000
        NUMBER_OF_FRAMES: 66566
        NUMBER_OF_BYTES : 34708417
        _STATISTICS_WRITING_APP: mkvmerge v66.0.0 ('Josie') 64-bit
        _STATISTICS_WRITING_DATE_UTC: 2024-12-15 11:01:43
        _STATISTICS_TAGS: BPS DURATION NUMBER_OF_FRAMES NUMBER_OF_BYTES
  Stream #1:2(rus): Subtitle: ass (ssa) (default) (forced)
      Metadata:
        title           : Надписи
        BPS             : 8
        DURATION        : 00:20:40.920000000
        NUMBER_OF_FRAMES: 11
        NUMBER_OF_BYTES : 1242
        _STATISTICS_WRITING_APP: mkvmerge v66.0.0 ('Josie') 64-bit
        _STATISTICS_WRITING_DATE_UTC: 2024-12-15 11:01:43
        _STATISTICS_TAGS: BPS DURATION NUMBER_OF_FRAMES NUMBER_OF_BYTES
  Stream #1:3(rus): Subtitle: ass (ssa)
      Metadata:
        title           : Полные субтитры
        BPS             : 128
        DURATION        : 00:23:13.600000000
        NUMBER_OF_FRAMES: 320
        NUMBER_OF_BYTES : 22347
        _STATISTICS_WRITING_APP: mkvmerge v66.0.0 ('Josie') 64-bit
        _STATISTICS_WRITING_DATE_UTC: 2024-12-15 11:01:43
        _STATISTICS_TAGS: BPS DURATION NUMBER_OF_FRAMES NUMBER_OF_BYTES
  Stream #1:4: Attachment: ttf
      Metadata:
        filename        : OpenSans-Semibold.ttf
        mimetype        : application/x-truetype-font
  Stream #1:5: Attachment: ttf
      Metadata:
        filename        : v_MightyZeo2.0_v1.07.ttf
        mimetype        : application/x-truetype-font
  Stream #1:6: Attachment: ttf
      Metadata:
        filename        : OpenSans-Semibold.ttf
        mimetype        : application/x-truetype-font
Stream mapping:
  Stream #0:0 (hevc) -> settb:default
  Stream #1:0 (h264) -> settb:default
  psnr:default -> Stream #0:0 (wrapped_avframe)
  Stream #0:1 -> #0:1 (aac (native) -> pcm_s16le (native))
[swscaler @ 000001f98e4b1600] No accelerated colorspace conversion found from yuv420p to bgr48le.
[swscaler @ 000001f98e5897c0] No accelerated colorspace conversion found from yuv420p to bgr48le.
[swscaler @ 000001f98e750d00] No accelerated colorspace conversion found from yuv420p to bgr48le.
[swscaler @ 000001f98e807a00] No accelerated colorspace conversion found from yuv420p to bgr48le.
[swscaler @ 000001f98e8afdc0] No accelerated colorspace conversion found from yuv420p to bgr48le.
[swscaler @ 000001f98e954780] No accelerated colorspace conversion found from yuv420p to bgr48le.
[swscaler @ 000001f98e978680] No accelerated colorspace conversion found from yuv420p to bgr48le.
[swscaler @ 000001f98e9d8d80] No accelerated colorspace conversion found from yuv420p to bgr48le.
[swscaler @ 000001f98ea34040] No accelerated colorspace conversion found from yuv420p to bgr48le.
[swscaler @ 000001f98eac9040] No accelerated colorspace conversion found from yuv420p to bgr48le.
[swscaler @ 000001f98eaef8c0] No accelerated colorspace conversion found from yuv420p to bgr48le.
[swscaler @ 000001f992100040] No accelerated colorspace conversion found from yuv420p to bgr48le.
[swscaler @ 000001f99215f040] No accelerated colorspace conversion found from yuv420p to bgr48le.
[swscaler @ 000001f9921dd040] No accelerated colorspace conversion found from yuv420p to bgr48le.
[swscaler @ 000001f992239040] No accelerated colorspace conversion found from yuv420p to bgr48le.
[swscaler @ 000001f9922b3040] No accelerated colorspace conversion found from yuv420p to bgr48le.
Output #0, null, to 'pipe:':
  Metadata:
    encoder         : Lavf61.7.100
  Stream #0:0: Video: wrapped_avframe, yuv420p10le(tv, bt709, progressive), 1280x720 [SAR 1:1 DAR 16:9], q=2-31, 200 kb/s, 23.98 fps, 23.98 tbn
      Metadata:
        encoder         : Lavc61.19.100 wrapped_avframe
  Stream #0:1(rus): Audio: pcm_s16le, 48000 Hz, stereo, s16, 1536 kb/s (default) (forced)
      Metadata:
        title           : AniLibria.TV
        _STATISTICS_TAGS: BPS DURATION NUMBER_OF_FRAMES NUMBER_OF_BYTES
        BPS             : 195143
        DURATION        : 00:23:40.074000000
        NUMBER_OF_FRAMES: 66567
        NUMBER_OF_BYTES : 34639787
        _STATISTICS_WRITING_APP: mkvpropedit v66.0.0 ('Josie') 64-bit
        _STATISTICS_WRITING_DATE_UTC: 2025-06-17 15:40:58
        encoder         : Lavc61.19.100 pcm_s16le
frame=   75 fps=0.0 q=-0.0 size=N/A time=00:00:03.12 bitrate=N/A speed=6.14x    frame=  178 fps=175 q=-0.0 size=N/A time=00:00:07.42 bitrate=N/A speed= 7.3x    frame=  277 fps=179 q=-0.0 size=N/A time=00:00:11.55 bitrate=N/A speed=7.49x    frame=  376 fps=183 q=-0.0 size=N/A time=00:00:15.68 bitrate=N/A speed=7.64x    frame=  469 fps=182 q=-0.0 size=N/A time=00:00:19.56 bitrate=N/A speed=7.58x    frame=  577 fps=186 q=-0.0 size=N/A time=00:00:24.06 bitrate=N/A speed=7.75x    frame=  670 fps=185 q=-0.0 size=N/A time=00:00:27.94 bitrate=N/A speed=7.71x    frame=  769 fps=186 q=-0.0 size=N/A time=00:00:32.07 bitrate=N/A speed=7.76x    frame=  872 fps=188 q=-0.0 size=N/A time=00:00:36.36 bitrate=N/A speed=7.83x    frame=  964 fps=186 q=-0.0 size=N/A time=00:00:40.20 bitrate=N/A speed=7.77x    frame= 1055 fps=186 q=-0.0 size=N/A time=00:00:44.00 bitrate=N/A speed=7.74x    frame= 1150 fps=186 q=-0.0 size=N/A time=00:00:47.96 bitrate=N/A speed=7.74x    frame= 1257 fps=187 q=-0.0 size=N/A time=00:00:52.42 bitrate=N/A speed=7.81x    frame= 1351 fps=187 q=-0.0 size=N/A time=00:00:56.34 bitrate=N/A speed= 7.8x    frame= 1461 fps=189 q=-0.0 size=N/A time=00:01:00.93 bitrate=N/A speed=7.86x    frame= 1547 fps=187 q=-0.0 size=N/A time=00:01:04.52 bitrate=N/A speed=7.81x    frame= 1640 fps=187 q=-0.0 size=N/A time=00:01:08.40 bitrate=N/A speed= 7.8x    frame= 1742 fps=187 q=-0.0 size=N/A time=00:01:12.65 bitrate=N/A speed=7.82x    frame= 1822 fps=186 q=-0.0 size=N/A time=00:01:15.99 bitrate=N/A speed=7.75x    frame= 1929 fps=187 q=-0.0 size=N/A time=00:01:20.45 bitrate=N/A speed=7.79x    frame= 2022 fps=187 q=-0.0 size=N/A time=00:01:24.33 bitrate=N/A speed=7.78x    frame= 2114 fps=186 q=-0.0 size=N/A time=00:01:28.17 bitrate=N/A speed=7.77x    frame= 2212 fps=186 q=-0.0 size=N/A time=00:01:32.25 bitrate=N/A speed=7.77x    frame= 2312 fps=187 q=-0.0 size=N/A time=00:01:36.42 bitrate=N/A speed=7.79x    frame= 2397 fps=186 q=-0.0 size=N/A time=00:01:39.97 bitrate=N/A speed=7.75x    frame= 2501 fps=186 q=-0.0 size=N/A time=00:01:44.31 bitrate=N/A speed=7.78x    frame= 2588 fps=186 q=-0.0 size=N/A time=00:01:47.94 bitrate=N/A speed=7.75x    frame= 2692 fps=186 q=-0.0 size=N/A time=00:01:52.27 bitrate=N/A speed=7.77x    frame= 2776 fps=186 q=-0.0 size=N/A time=00:01:55.78 bitrate=N/A speed=7.74x    frame= 2880 fps=186 q=-0.0 size=N/A time=00:02:00.12 bitrate=N/A speed=7.76x    frame= 2976 fps=186 q=-0.0 size=N/A time=00:02:04.12 bitrate=N/A speed=7.76x    frame= 3074 fps=186 q=-0.0 size=N/A time=00:02:08.21 bitrate=N/A speed=7.77x    frame= 3170 fps=186 q=-0.0 size=N/A time=00:02:12.21 bitrate=N/A speed=7.77x    frame= 3264 fps=186 q=-0.0 size=N/A time=00:02:16.13 bitrate=N/A speed=7.76x    frame= 3356 fps=186 q=-0.0 size=N/A time=00:02:19.97 bitrate=N/A speed=7.75x    frame= 3463 fps=186 q=-0.0 size=N/A time=00:02:24.43 bitrate=N/A speed=7.78x    frame= 3564 fps=187 q=-0.0 size=N/A time=00:02:28.64 bitrate=N/A speed=7.79x    frame= 3656 fps=186 q=-0.0 size=N/A time=00:02:32.48 bitrate=N/A speed=7.78x    frame= 3754 fps=187 q=-0.0 size=N/A time=00:02:36.57 bitrate=N/A speed=7.78x    frame= 3856 fps=187 q=-0.0 size=N/A time=00:02:40.82 bitrate=N/A speed= 7.8x    frame= 3952 fps=187 q=-0.0 size=N/A time=00:02:44.83 bitrate=N/A speed=7.79x    frame= 4051 fps=187 q=-0.0 size=N/A time=00:02:48.96 bitrate=N/A speed= 7.8x    frame= 4149 fps=187 q=-0.0 size=N/A time=00:02:53.04 bitrate=N/A speed= 7.8x    frame= 4249 fps=187 q=-0.0 size=N/A time=00:02:57.21 bitrate=N/A speed=7.81x    frame= 4348 fps=187 q=-0.0 size=N/A time=00:03:01.34 bitrate=N/A speed=7.81x    frame= 4446 fps=187 q=-0.0 size=N/A time=00:03:05.43 bitrate=N/A speed=7.81x    frame= 4550 fps=188 q=-0.0 size=N/A time=00:03:09.77 bitrate=N/A speed=7.83x    frame= 4643 fps=188 q=-0.0 size=N/A time=00:03:13.65 bitrate=N/A speed=7.82x    frame= 4745 fps=188 q=-0.0 size=N/A time=00:03:17.90 bitrate=N/A speed=7.83x    frame= 4845 fps=188 q=-0.0 size=N/A time=00:03:22.07 bitrate=N/A speed=7.84x    frame= 4943 fps=188 q=-0.0 size=N/A time=00:03:26.16 bitrate=N/A speed=7.84x    frame= 5043 fps=188 q=-0.0 size=N/A time=00:03:30.33 bitrate=N/A speed=7.84x    frame= 5143 fps=188 q=-0.0 size=N/A time=00:03:34.50 bitrate=N/A speed=7.85x    frame= 5243 fps=188 q=-0.0 size=N/A time=00:03:38.67 bitrate=N/A speed=7.85x    frame= 5329 fps=188 q=-0.0 size=N/A time=00:03:42.26 bitrate=N/A speed=7.84x    frame= 5433 fps=188 q=-0.0 size=N/A time=00:03:46.60 bitrate=N/A speed=7.84x    frame= 5524 fps=188 q=-0.0 size=N/A time=00:03:50.39 bitrate=N/A speed=7.84x    frame= 5629 fps=188 q=-0.0 size=N/A time=00:03:54.77 bitrate=N/A speed=7.85x    frame= 5734 fps=188 q=-0.0 size=N/A time=00:03:59.15 bitrate=N/A speed=7.86x    frame= 5832 fps=188 q=-0.0 size=N/A time=00:04:03.24 bitrate=N/A speed=7.86x    frame= 5927 fps=188 q=-0.0 size=N/A time=00:04:07.20 bitrate=N/A speed=7.86x    frame= 6032 fps=189 q=-0.0 size=N/A time=00:04:11.58 bitrate=N/A speed=7.87x    frame= 6120 fps=188 q=-0.0 size=N/A time=00:04:15.25 bitrate=N/A speed=7.86x    frame= 6236 fps=189 q=-0.0 size=N/A time=00:04:20.09 bitrate=N/A speed=7.88x    frame= 6321 fps=189 q=-0.0 size=N/A time=00:04:23.63 bitrate=N/A speed=7.86x    frame= 6422 fps=189 q=-0.0 size=N/A time=00:04:27.85 bitrate=N/A speed=7.87x    frame= 6535 fps=189 q=-0.0 size=N/A time=00:04:32.56 bitrate=N/A speed=7.89x    frame= 6634 fps=189 q=-0.0 size=N/A time=00:04:36.69 bitrate=N/A speed=7.89x    frame= 6731 fps=189 q=-0.0 size=N/A time=00:04:40.73 bitrate=N/A speed=7.89x    frame= 6832 fps=189 q=-0.0 size=N/A time=00:04:44.95 bitrate=N/A speed=7.89x    frame= 6929 fps=189 q=-0.0 size=N/A time=00:04:48.99 bitrate=N/A speed=7.89x    frame= 7024 fps=189 q=-0.0 size=N/A time=00:04:52.95 bitrate=N/A speed=7.89x    frame= 7125 fps=189 q=-0.0 size=N/A time=00:04:57.17 bitrate=N/A speed=7.89x    frame= 7226 fps=189 q=-0.0 size=N/A time=00:05:01.38 bitrate=N/A speed= 7.9x    frame= 7317 fps=189 q=-0.0 size=N/A time=00:05:05.17 bitrate=N/A speed=7.89x    frame= 7426 fps=189 q=-0.0 size=N/A time=00:05:09.72 bitrate=N/A speed= 7.9x    frame= 7524 fps=189 q=-0.0 size=N/A time=00:05:13.81 bitrate=N/A speed= 7.9x    frame= 7623 fps=190 q=-0.0 size=N/A time=00:05:17.94 bitrate=N/A speed= 7.9x    frame= 7717 fps=189 q=-0.0 size=N/A time=00:05:21.86 bitrate=N/A speed= 7.9x    frame= 7822 fps=190 q=-0.0 size=N/A time=00:05:26.24 bitrate=N/A speed=7.91x    frame= 7920 fps=190 q=-0.0 size=N/A time=00:05:30.33 bitrate=N/A speed=7.91x    frame= 8016 fps=190 q=-0.0 size=N/A time=00:05:34.33 bitrate=N/A speed=7.91x    frame= 8117 fps=190 q=-0.0 size=N/A time=00:05:38.54 bitrate=N/A speed=7.91x    frame= 8203 fps=189 q=-0.0 size=N/A time=00:05:42.13 bitrate=N/A speed= 7.9x    frame= 8300 fps=189 q=-0.0 size=N/A time=00:05:46.17 bitrate=N/A speed= 7.9x    frame= 8399 fps=189 q=-0.0 size=N/A time=00:05:50.30 bitrate=N/A speed= 7.9x    frame= 8491 fps=189 q=-0.0 size=N/A time=00:05:54.14 bitrate=N/A speed=7.89x    frame= 8593 fps=189 q=-0.0 size=N/A time=00:05:58.39 bitrate=N/A speed= 7.9x    frame= 8691 fps=189 q=-0.0 size=N/A time=00:06:02.48 bitrate=N/A speed= 7.9x    frame= 8793 fps=189 q=-0.0 size=N/A time=00:06:06.74 bitrate=N/A speed= 7.9x    frame= 8889 fps=189 q=-0.0 size=N/A time=00:06:10.74 bitrate=N/A speed= 7.9x    frame= 8989 fps=189 q=-0.0 size=N/A time=00:06:14.91 bitrate=N/A speed= 7.9x    frame= 9091 fps=190 q=-0.0 size=N/A time=00:06:19.17 bitrate=N/A speed=7.91x    frame= 9189 fps=190 q=-0.0 size=N/A time=00:06:23.25 bitrate=N/A speed=7.91x    frame= 9286 fps=190 q=-0.0 size=N/A time=00:06:27.30 bitrate=N/A speed= 7.9x    frame= 9385 fps=190 q=-0.0 size=N/A time=00:06:31.43 bitrate=N/A speed=7.91x    frame= 9490 fps=190 q=-0.0 size=N/A time=00:06:35.81 bitrate=N/A speed=7.91x    frame= 9585 fps=190 q=-0.0 size=N/A time=00:06:39.77 bitrate=N/A speed=7.91x    frame= 9683 fps=190 q=-0.0 size=N/A time=00:06:43.86 bitrate=N/A speed=7.91x    frame= 9786 fps=190 q=-0.0 size=N/A time=00:06:48.15 bitrate=N/A speed=7.91x    frame= 9884 fps=190 q=-0.0 size=N/A time=00:06:52.24 bitrate=N/A speed=7.91x    frame= 9985 fps=190 q=-0.0 size=N/A time=00:06:56.45 bitrate=N/A speed=7.92x    frame=10082 fps=190 q=-0.0 size=N/A time=00:07:00.50 bitrate=N/A speed=7.92x    frame=10178 fps=190 q=-0.0 size=N/A time=00:07:04.50 bitrate=N/A speed=7.91x    frame=10275 fps=190 q=-0.0 size=N/A time=00:07:08.55 bitrate=N/A speed=7.91x    frame=10372 fps=190 q=-0.0 size=N/A time=00:07:12.59 bitrate=N/A speed=7.91x    frame=10475 fps=190 q=-0.0 size=N/A time=00:07:16.89 bitrate=N/A speed=7.92x    frame=10574 fps=190 q=-0.0 size=N/A time=00:07:21.02 bitrate=N/A speed=7.92x    frame=10668 fps=190 q=-0.0 size=N/A time=00:07:24.94 bitrate=N/A speed=7.92x    frame=10773 fps=190 q=-0.0 size=N/A time=00:07:29.32 bitrate=N/A speed=7.92x    frame=10873 fps=190 q=-0.0 size=N/A time=00:07:33.49 bitrate=N/A speed=7.92x    frame=10973 fps=190 q=-0.0 size=N/A time=00:07:37.66 bitrate=N/A speed=7.92x    frame=11071 fps=190 q=-0.0 size=N/A time=00:07:41.75 bitrate=N/A speed=7.92x    frame=11167 fps=190 q=-0.0 size=N/A time=00:07:45.75 bitrate=N/A speed=7.92x    frame=11265 fps=190 q=-0.0 size=N/A time=00:07:49.84 bitrate=N/A speed=7.92x    frame=11361 fps=190 q=-0.0 size=N/A time=00:07:53.84 bitrate=N/A speed=7.92x    frame=11462 fps=190 q=-0.0 size=N/A time=00:07:58.06 bitrate=N/A speed=7.92x    frame=11563 fps=190 q=-0.0 size=N/A time=00:08:02.27 bitrate=N/A speed=7.92x    frame=11661 fps=190 q=-0.0 size=N/A time=00:08:06.36 bitrate=N/A speed=7.93x    frame=11760 fps=190 q=-0.0 size=N/A time=00:08:10.49 bitrate=N/A speed=7.93x    frame=11859 fps=190 q=-0.0 size=N/A time=00:08:14.61 bitrate=N/A speed=7.93x    frame=11961 fps=190 q=-0.0 size=N/A time=00:08:18.87 bitrate=N/A speed=7.93x    frame=12058 fps=190 q=-0.0 size=N/A time=00:08:22.91 bitrate=N/A speed=7.93x    frame=12161 fps=190 q=-0.0 size=N/A time=00:08:27.21 bitrate=N/A speed=7.93x    frame=12243 fps=190 q=-0.0 size=N/A time=00:08:30.63 bitrate=N/A speed=7.92x    frame=12358 fps=190 q=-0.0 size=N/A time=00:08:35.43 bitrate=N/A speed=7.93x    frame=12450 fps=190 q=-0.0 size=N/A time=00:08:39.26 bitrate=N/A speed=7.93x    frame=12558 fps=190 q=-0.0 size=N/A time=00:08:43.77 bitrate=N/A speed=7.94x    frame=12660 fps=190 q=-0.0 size=N/A time=00:08:48.02 bitrate=N/A speed=7.94x    frame=12758 fps=190 q=-0.0 size=N/A time=00:08:52.11 bitrate=N/A speed=7.94x    frame=12861 fps=190 q=-0.0 size=N/A time=00:08:56.41 bitrate=N/A speed=7.94x    frame=12961 fps=190 q=-0.0 size=N/A time=00:09:00.58 bitrate=N/A speed=7.94x    frame=13058 fps=190 q=-0.0 size=N/A time=00:09:04.62 bitrate=N/A speed=7.94x    frame=13159 fps=190 q=-0.0 size=N/A time=00:09:08.83 bitrate=N/A speed=7.94x    frame=13257 fps=190 q=-0.0 size=N/A time=00:09:12.92 bitrate=N/A speed=7.94x    frame=13358 fps=190 q=-0.0 size=N/A time=00:09:17.13 bitrate=N/A speed=7.94x    frame=13455 fps=190 q=-0.0 size=N/A time=00:09:21.18 bitrate=N/A speed=7.94x    frame=13543 fps=190 q=-0.0 size=N/A time=00:09:24.85 bitrate=N/A speed=7.94x    frame=13646 fps=190 q=-0.0 size=N/A time=00:09:29.15 bitrate=N/A speed=7.94x    frame=13753 fps=190 q=-0.0 size=N/A time=00:09:33.61 bitrate=N/A speed=7.94x    frame=13850 fps=190 q=-0.0 size=N/A time=00:09:37.66 bitrate=N/A speed=7.94x    frame=13945 fps=190 q=-0.0 size=N/A time=00:09:41.62 bitrate=N/A speed=7.94x    frame=14045 fps=190 q=-0.0 size=N/A time=00:09:45.79 bitrate=N/A speed=7.94x    frame=14144 fps=190 q=-0.0 size=N/A time=00:09:49.92 bitrate=N/A speed=7.94x    frame=14247 fps=191 q=-0.0 size=N/A time=00:09:54.21 bitrate=N/A speed=7.95x    frame=14341 fps=190 q=-0.0 size=N/A time=00:09:58.13 bitrate=N/A speed=7.94x    frame=14449 fps=191 q=-0.0 size=N/A time=00:10:02.64 bitrate=N/A speed=7.95x    frame=14550 fps=191 q=-0.0 size=N/A time=00:10:06.85 bitrate=N/A speed=7.95x    frame=14636 fps=190 q=-0.0 size=N/A time=00:10:10.44 bitrate=N/A speed=7.94x    frame=14744 fps=191 q=-0.0 size=N/A time=00:10:14.94 bitrate=N/A speed=7.95x    frame=14839 fps=191 q=-0.0 size=N/A time=00:10:18.90 bitrate=N/A speed=7.95x    frame=14947 fps=191 q=-0.0 size=N/A time=00:10:23.41 bitrate=N/A speed=7.95x    frame=15043 fps=191 q=-0.0 size=N/A time=00:10:27.41 bitrate=N/A speed=7.95x    frame=15144 fps=191 q=-0.0 size=N/A time=00:10:31.63 bitrate=N/A speed=7.95x    frame=15249 fps=191 q=-0.0 size=N/A time=00:10:36.01 bitrate=N/A speed=7.96x    frame=15349 fps=191 q=-0.0 size=N/A time=00:10:40.18 bitrate=N/A speed=7.96x    frame=15444 fps=191 q=-0.0 size=N/A time=00:10:44.14 bitrate=N/A speed=7.96x    frame=15549 fps=191 q=-0.0 size=N/A time=00:10:48.52 bitrate=N/A speed=7.96x    frame=15644 fps=191 q=-0.0 size=N/A time=00:10:52.48 bitrate=N/A speed=7.96x    frame=15741 fps=191 q=-0.0 size=N/A time=00:10:56.53 bitrate=N/A speed=7.96x    frame=15837 fps=191 q=-0.0 size=N/A time=00:11:00.53 bitrate=N/A speed=7.95x    frame=15933 fps=191 q=-0.0 size=N/A time=00:11:04.53 bitrate=N/A speed=7.95x    frame=16032 fps=191 q=-0.0 size=N/A time=00:11:08.66 bitrate=N/A speed=7.95x    frame=16132 fps=191 q=-0.0 size=N/A time=00:11:12.83 bitrate=N/A speed=7.95x    frame=16230 fps=191 q=-0.0 size=N/A time=00:11:16.92 bitrate=N/A speed=7.95x    frame=16327 fps=191 q=-0.0 size=N/A time=00:11:20.97 bitrate=N/A speed=7.95x    frame=16426 fps=191 q=-0.0 size=N/A time=00:11:25.10 bitrate=N/A speed=7.95x    frame=16522 fps=191 q=-0.0 size=N/A time=00:11:29.10 bitrate=N/A speed=7.95x    frame=16618 fps=191 q=-0.0 size=N/A time=00:11:33.10 bitrate=N/A speed=7.95x    frame=16723 fps=191 q=-0.0 size=N/A time=00:11:37.48 bitrate=N/A speed=7.95x    frame=16824 fps=191 q=-0.0 size=N/A time=00:11:41.70 bitrate=N/A speed=7.95x    frame=16925 fps=191 q=-0.0 size=N/A time=00:11:45.91 bitrate=N/A speed=7.95x    frame=17021 fps=191 q=-0.0 size=N/A time=00:11:49.91 bitrate=N/A speed=7.95x    frame=17120 fps=191 q=-0.0 size=N/A time=00:11:54.04 bitrate=N/A speed=7.95x    frame=17215 fps=191 q=-0.0 size=N/A time=00:11:58.00 bitrate=N/A speed=7.95x    frame=17313 fps=191 q=-0.0 size=N/A time=00:12:02.09 bitrate=N/A speed=7.95x    frame=17412 fps=191 q=-0.0 size=N/A time=00:12:06.22 bitrate=N/A speed=7.95x    frame=17507 fps=191 q=-0.0 size=N/A time=00:12:10.18 bitrate=N/A speed=7.95x    frame=17601 fps=191 q=-0.0 size=N/A time=00:12:14.10 bitrate=N/A speed=7.95x    frame=17689 fps=190 q=-0.0 size=N/A time=00:12:17.77 bitrate=N/A speed=7.94x    frame=17779 fps=190 q=-0.0 size=N/A time=00:12:21.53 bitrate=N/A speed=7.94x    frame=17869 fps=190 q=-0.0 size=N/A time=00:12:25.28 bitrate=N/A speed=7.94x    frame=17966 fps=190 q=-0.0 size=N/A time=00:12:29.33 bitrate=N/A speed=7.94x    frame=18067 fps=190 q=-0.0 size=N/A time=00:12:33.54 bitrate=N/A speed=7.94x    frame=18167 fps=190 q=-0.0 size=N/A time=00:12:37.71 bitrate=N/A speed=7.94x    frame=18264 fps=190 q=-0.0 size=N/A time=00:12:41.76 bitrate=N/A speed=7.94x    frame=18356 fps=190 q=-0.0 size=N/A time=00:12:45.59 bitrate=N/A speed=7.94x    frame=18444 fps=190 q=-0.0 size=N/A time=00:12:49.26 bitrate=N/A speed=7.93x    frame=18539 fps=190 q=-0.0 size=N/A time=00:12:53.23 bitrate=N/A speed=7.93x    frame=18629 fps=190 q=-0.0 size=N/A time=00:12:56.98 bitrate=N/A speed=7.93x    frame=18737 fps=190 q=-0.0 size=N/A time=00:13:01.48 bitrate=N/A speed=7.93x    frame=18838 fps=190 q=-0.0 size=N/A time=00:13:05.70 bitrate=N/A speed=7.93x    frame=18934 fps=190 q=-0.0 size=N/A time=00:13:09.70 bitrate=N/A speed=7.93x    frame=19029 fps=190 q=-0.0 size=N/A time=00:13:13.66 bitrate=N/A speed=7.93x    frame=19134 fps=190 q=-0.0 size=N/A time=00:13:18.04 bitrate=N/A speed=7.93x    frame=19236 fps=190 q=-0.0 size=N/A time=00:13:22.30 bitrate=N/A speed=7.93x    frame=19332 fps=190 q=-0.0 size=N/A time=00:13:26.30 bitrate=N/A speed=7.93x    frame=19431 fps=190 q=-0.0 size=N/A time=00:13:30.43 bitrate=N/A speed=7.93x    frame=19523 fps=190 q=-0.0 size=N/A time=00:13:34.27 bitrate=N/A speed=7.93x    frame=19622 fps=190 q=-0.0 size=N/A time=00:13:38.40 bitrate=N/A speed=7.93x    frame=19722 fps=190 q=-0.0 size=N/A time=00:13:42.57 bitrate=N/A speed=7.93x    frame=19822 fps=190 q=-0.0 size=N/A time=00:13:46.74 bitrate=N/A speed=7.93x    frame=19924 fps=190 q=-0.0 size=N/A time=00:13:50.99 bitrate=N/A speed=7.93x    frame=20015 fps=190 q=-0.0 size=N/A time=00:13:54.79 bitrate=N/A speed=7.93x    frame=20116 fps=190 q=-0.0 size=N/A time=00:13:59.00 bitrate=N/A speed=7.93x    frame=20209 fps=190 q=-0.0 size=N/A time=00:14:02.88 bitrate=N/A speed=7.93x    frame=20309 fps=190 q=-0.0 size=N/A time=00:14:07.05 bitrate=N/A speed=7.93x    frame=20408 fps=190 q=-0.0 size=N/A time=00:14:11.18 bitrate=N/A speed=7.93x    frame=20510 fps=190 q=-0.0 size=N/A time=00:14:15.43 bitrate=N/A speed=7.93x    frame=20611 fps=190 q=-0.0 size=N/A time=00:14:19.65 bitrate=N/A speed=7.93x    frame=20709 fps=190 q=-0.0 size=N/A time=00:14:23.73 bitrate=N/A speed=7.93x    frame=20798 fps=190 q=-0.0 size=N/A time=00:14:27.44 bitrate=N/A speed=7.93x    frame=20906 fps=190 q=-0.0 size=N/A time=00:14:31.95 bitrate=N/A speed=7.93x    frame=21006 fps=190 q=-0.0 size=N/A time=00:14:36.12 bitrate=N/A speed=7.93x    frame=21102 fps=190 q=-0.0 size=N/A time=00:14:40.12 bitrate=N/A speed=7.93x    frame=21201 fps=190 q=-0.0 size=N/A time=00:14:44.25 bitrate=N/A speed=7.93x    frame=21295 fps=190 q=-0.0 size=N/A time=00:14:48.17 bitrate=N/A speed=7.93x    frame=21398 fps=190 q=-0.0 size=N/A time=00:14:52.47 bitrate=N/A speed=7.93x    frame=21496 fps=190 q=-0.0 size=N/A time=00:14:56.56 bitrate=N/A speed=7.93x    frame=21588 fps=190 q=-0.0 size=N/A time=00:15:00.39 bitrate=N/A speed=7.93x    frame=21695 fps=190 q=-0.0 size=N/A time=00:15:04.86 bitrate=N/A speed=7.94x    frame=21787 fps=190 q=-0.0 size=N/A time=00:15:08.69 bitrate=N/A speed=7.93x    frame=21886 fps=190 q=-0.0 size=N/A time=00:15:12.82 bitrate=N/A speed=7.93x    frame=21983 fps=190 q=-0.0 size=N/A time=00:15:16.87 bitrate=N/A speed=7.93x    frame=22082 fps=190 q=-0.0 size=N/A time=00:15:21.00 bitrate=N/A speed=7.93x    frame=22180 fps=190 q=-0.0 size=N/A time=00:15:25.09 bitrate=N/A speed=7.93x    frame=22282 fps=190 q=-0.0 size=N/A time=00:15:29.34 bitrate=N/A speed=7.93x    frame=22383 fps=190 q=-0.0 size=N/A time=00:15:33.55 bitrate=N/A speed=7.94x    frame=22482 fps=190 q=-0.0 size=N/A time=00:15:37.68 bitrate=N/A speed=7.94x    frame=22583 fps=190 q=-0.0 size=N/A time=00:15:41.89 bitrate=N/A speed=7.94x    frame=22682 fps=190 q=-0.0 size=N/A time=00:15:46.02 bitrate=N/A speed=7.94x    frame=22780 fps=190 q=-0.0 size=N/A time=00:15:50.11 bitrate=N/A speed=7.94x    frame=22874 fps=190 q=-0.0 size=N/A time=00:15:54.03 bitrate=N/A speed=7.94x    frame=22976 fps=190 q=-0.0 size=N/A time=00:15:58.29 bitrate=N/A speed=7.94x    frame=23072 fps=190 q=-0.0 size=N/A time=00:16:02.29 bitrate=N/A speed=7.94x    frame=23174 fps=190 q=-0.0 size=N/A time=00:16:06.54 bitrate=N/A speed=7.94x    frame=23264 fps=190 q=-0.0 size=N/A time=00:16:10.30 bitrate=N/A speed=7.94x    frame=23369 fps=190 q=-0.0 size=N/A time=00:16:14.68 bitrate=N/A speed=7.94x    frame=23470 fps=190 q=-0.0 size=N/A time=00:16:18.89 bitrate=N/A speed=7.94x    frame=23572 fps=190 q=-0.0 size=N/A time=00:16:23.14 bitrate=N/A speed=7.94x    frame=23669 fps=190 q=-0.0 size=N/A time=00:16:27.19 bitrate=N/A speed=7.94x    frame=23767 fps=190 q=-0.0 size=N/A time=00:16:31.28 bitrate=N/A speed=7.94x    frame=23864 fps=190 q=-0.0 size=N/A time=00:16:35.32 bitrate=N/A speed=7.94x    frame=23959 fps=190 q=-0.0 size=N/A time=00:16:39.28 bitrate=N/A speed=7.94x    frame=24060 fps=190 q=-0.0 size=N/A time=00:16:43.50 bitrate=N/A speed=7.94x    frame=24166 fps=190 q=-0.0 size=N/A time=00:16:47.92 bitrate=N/A speed=7.94x    frame=24265 fps=190 q=-0.0 size=N/A time=00:16:52.05 bitrate=N/A speed=7.94x    frame=24362 fps=190 q=-0.0 size=N/A time=00:16:56.09 bitrate=N/A speed=7.94x    frame=24451 fps=190 q=-0.0 size=N/A time=00:16:59.81 bitrate=N/A speed=7.94x    frame=24556 fps=190 q=-0.0 size=N/A time=00:17:04.18 bitrate=N/A speed=7.94x    frame=24653 fps=190 q=-0.0 size=N/A time=00:17:08.23 bitrate=N/A speed=7.94x    frame=24753 fps=190 q=-0.0 size=N/A time=00:17:12.40 bitrate=N/A speed=7.94x    frame=24841 fps=190 q=-0.0 size=N/A time=00:17:16.07 bitrate=N/A speed=7.94x    frame=24950 fps=190 q=-0.0 size=N/A time=00:17:20.62 bitrate=N/A speed=7.94x    frame=25051 fps=190 q=-0.0 size=N/A time=00:17:24.83 bitrate=N/A speed=7.94x    frame=25143 fps=190 q=-0.0 size=N/A time=00:17:28.67 bitrate=N/A speed=7.94x    frame=25242 fps=190 q=-0.0 size=N/A time=00:17:32.80 bitrate=N/A speed=7.94x    frame=25354 fps=190 q=-0.0 size=N/A time=00:17:37.47 bitrate=N/A speed=7.94x    frame=25457 fps=190 q=-0.0 size=N/A time=00:17:41.76 bitrate=N/A speed=7.95x    frame=25545 fps=190 q=-0.0 size=N/A time=00:17:45.43 bitrate=N/A speed=7.94x    frame=25652 fps=190 q=-0.0 size=N/A time=00:17:49.90 bitrate=N/A speed=7.94x    frame=25747 fps=190 q=-0.0 size=N/A time=00:17:53.86 bitrate=N/A speed=7.94x    frame=25853 fps=191 q=-0.0 size=N/A time=00:17:58.28 bitrate=N/A speed=7.95x    frame=25948 fps=190 q=-0.0 size=N/A time=00:18:02.24 bitrate=N/A speed=7.95x    frame=26041 fps=190 q=-0.0 size=N/A time=00:18:06.12 bitrate=N/A speed=7.94x    frame=26147 fps=191 q=-0.0 size=N/A time=00:18:10.54 bitrate=N/A speed=7.95x    frame=26244 fps=191 q=-0.0 size=N/A time=00:18:14.59 bitrate=N/A speed=7.95x    frame=26342 fps=191 q=-0.0 size=N/A time=00:18:18.68 bitrate=N/A speed=7.95x    frame=26444 fps=191 q=-0.0 size=N/A time=00:18:22.93 bitrate=N/A speed=7.95x    frame=26532 fps=190 q=-0.0 size=N/A time=00:18:26.60 bitrate=N/A speed=7.94x    frame=26641 fps=191 q=-0.0 size=N/A time=00:18:31.15 bitrate=N/A speed=7.95x    frame=26741 fps=191 q=-0.0 size=N/A time=00:18:35.32 bitrate=N/A speed=7.95x    frame=26831 fps=190 q=-0.0 size=N/A time=00:18:39.07 bitrate=N/A speed=7.94x    frame=26930 fps=190 q=-0.0 size=N/A time=00:18:43.20 bitrate=N/A speed=7.94x    frame=27025 fps=190 q=-0.0 size=N/A time=00:18:47.16 bitrate=N/A speed=7.94x    frame=27134 fps=191 q=-0.0 size=N/A time=00:18:51.71 bitrate=N/A speed=7.95x    frame=27226 fps=190 q=-0.0 size=N/A time=00:18:55.55 bitrate=N/A speed=7.94x    frame=27317 fps=190 q=-0.0 size=N/A time=00:18:59.34 bitrate=N/A speed=7.94x    frame=27420 fps=190 q=-0.0 size=N/A time=00:19:03.64 bitrate=N/A speed=7.94x    frame=27524 fps=191 q=-0.0 size=N/A time=00:19:07.98 bitrate=N/A speed=7.95x    frame=27624 fps=191 q=-0.0 size=N/A time=00:19:12.15 bitrate=N/A speed=7.95x    frame=27722 fps=191 q=-0.0 size=N/A time=00:19:16.23 bitrate=N/A speed=7.95x    frame=27820 fps=191 q=-0.0 size=N/A time=00:19:20.32 bitrate=N/A speed=7.95x    frame=27915 fps=190 q=-0.0 size=N/A time=00:19:24.28 bitrate=N/A speed=7.95x    frame=28016 fps=191 q=-0.0 size=N/A time=00:19:28.50 bitrate=N/A speed=7.95x    frame=28111 fps=190 q=-0.0 size=N/A time=00:19:32.46 bitrate=N/A speed=7.94x    frame=28212 fps=191 q=-0.0 size=N/A time=00:19:36.67 bitrate=N/A speed=7.95x    frame=28305 fps=190 q=-0.0 size=N/A time=00:19:40.55 bitrate=N/A speed=7.94x    frame=28405 fps=190 q=-0.0 size=N/A time=00:19:44.72 bitrate=N/A speed=7.94x    frame=28502 fps=190 q=-0.0 size=N/A time=00:19:48.77 bitrate=N/A speed=7.94x    frame=28591 fps=190 q=-0.0 size=N/A time=00:19:52.48 bitrate=N/A speed=7.94x    frame=28697 fps=190 q=-0.0 size=N/A time=00:19:56.90 bitrate=N/A speed=7.94x    frame=28794 fps=190 q=-0.0 size=N/A time=00:20:00.94 bitrate=N/A speed=7.94x    frame=28893 fps=190 q=-0.0 size=N/A time=00:20:05.07 bitrate=N/A speed=7.94x    frame=28989 fps=190 q=-0.0 size=N/A time=00:20:09.08 bitrate=N/A speed=7.94x    frame=29090 fps=190 q=-0.0 size=N/A time=00:20:13.29 bitrate=N/A speed=7.94x    frame=29183 fps=190 q=-0.0 size=N/A time=00:20:17.17 bitrate=N/A speed=7.94x    frame=29286 fps=190 q=-0.0 size=N/A time=00:20:21.47 bitrate=N/A speed=7.94x    frame=29383 fps=190 q=-0.0 size=N/A time=00:20:25.51 bitrate=N/A speed=7.94x    frame=29487 fps=191 q=-0.0 size=N/A time=00:20:29.85 bitrate=N/A speed=7.95x    frame=29590 fps=191 q=-0.0 size=N/A time=00:20:34.14 bitrate=N/A speed=7.95x    frame=29690 fps=191 q=-0.0 size=N/A time=00:20:38.32 bitrate=N/A speed=7.95x    frame=29788 fps=191 q=-0.0 size=N/A time=00:20:42.40 bitrate=N/A speed=7.95x    frame=29888 fps=191 q=-0.0 size=N/A time=00:20:46.57 bitrate=N/A speed=7.95x    frame=29991 fps=191 q=-0.0 size=N/A time=00:20:50.87 bitrate=N/A speed=7.95x    frame=30090 fps=191 q=-0.0 size=N/A time=00:20:55.00 bitrate=N/A speed=7.95x    frame=30191 fps=191 q=-0.0 size=N/A time=00:20:59.21 bitrate=N/A speed=7.95x    frame=30294 fps=191 q=-0.0 size=N/A time=00:21:03.51 bitrate=N/A speed=7.95x    frame=30392 fps=191 q=-0.0 size=N/A time=00:21:07.59 bitrate=N/A speed=7.95x    frame=30486 fps=191 q=-0.0 size=N/A time=00:21:11.52 bitrate=N/A speed=7.95x    frame=30581 fps=191 q=-0.0 size=N/A time=00:21:15.48 bitrate=N/A speed=7.95x    frame=30687 fps=191 q=-0.0 size=N/A time=00:21:19.90 bitrate=N/A speed=7.95x    frame=30785 fps=191 q=-0.0 size=N/A time=00:21:23.99 bitrate=N/A speed=7.95x    frame=30889 fps=191 q=-0.0 size=N/A time=00:21:28.32 bitrate=N/A speed=7.95x    frame=30987 fps=191 q=-0.0 size=N/A time=00:21:32.41 bitrate=N/A speed=7.95x    frame=31083 fps=191 q=-0.0 size=N/A time=00:21:36.42 bitrate=N/A speed=7.95x    frame=31187 fps=191 q=-0.0 size=N/A time=00:21:40.75 bitrate=N/A speed=7.95x    frame=31283 fps=191 q=-0.0 size=N/A time=00:21:44.76 bitrate=N/A speed=7.95x    frame=31380 fps=191 q=-0.0 size=N/A time=00:21:48.80 bitrate=N/A speed=7.95x    frame=31477 fps=191 q=-0.0 size=N/A time=00:21:52.85 bitrate=N/A speed=7.95x    frame=31580 fps=191 q=-0.0 size=N/A time=00:21:57.14 bitrate=N/A speed=7.95x    frame=31678 fps=191 q=-0.0 size=N/A time=00:22:01.23 bitrate=N/A speed=7.95x    frame=31774 fps=191 q=-0.0 size=N/A time=00:22:05.24 bitrate=N/A speed=7.95x    frame=31873 fps=191 q=-0.0 size=N/A time=00:22:09.36 bitrate=N/A speed=7.95x    frame=31977 fps=191 q=-0.0 size=N/A time=00:22:13.70 bitrate=N/A speed=7.95x    frame=32076 fps=191 q=-0.0 size=N/A time=00:22:17.83 bitrate=N/A speed=7.95x    frame=32174 fps=191 q=-0.0 size=N/A time=00:22:21.92 bitrate=N/A speed=7.95x    frame=32271 fps=191 q=-0.0 size=N/A time=00:22:25.96 bitrate=N/A speed=7.95x    frame=32357 fps=191 q=-0.0 size=N/A time=00:22:29.55 bitrate=N/A speed=7.95x    frame=32469 fps=191 q=-0.0 size=N/A time=00:22:34.22 bitrate=N/A speed=7.95x    frame=32563 fps=191 q=-0.0 size=N/A time=00:22:38.14 bitrate=N/A speed=7.95x    frame=32657 fps=191 q=-0.0 size=N/A time=00:22:42.06 bitrate=N/A speed=7.95x    frame=32758 fps=191 q=-0.0 size=N/A time=00:22:46.28 bitrate=N/A speed=7.95x    frame=32853 fps=191 q=-0.0 size=N/A time=00:22:50.24 bitrate=N/A speed=7.95x    frame=32956 fps=191 q=-0.0 size=N/A time=00:22:54.53 bitrate=N/A speed=7.95x    frame=33052 fps=191 q=-0.0 size=N/A time=00:22:58.54 bitrate=N/A speed=7.95x    frame=33154 fps=191 q=-0.0 size=N/A time=00:23:02.79 bitrate=N/A speed=7.95x    frame=33255 fps=191 q=-0.0 size=N/A time=00:23:07.01 bitrate=N/A speed=7.95x    frame=33346 fps=191 q=-0.0 size=N/A time=00:23:10.80 bitrate=N/A speed=7.95x    frame=33450 fps=191 q=-0.0 size=N/A time=00:23:15.14 bitrate=N/A speed=7.95x    frame=33549 fps=191 q=-0.0 size=N/A time=00:23:19.27 bitrate=N/A speed=7.95x    frame=33644 fps=191 q=-0.0 size=N/A time=00:23:23.23 bitrate=N/A speed=7.95x    frame=33736 fps=191 q=-0.0 size=N/A time=00:23:27.07 bitrate=N/A speed=7.95x    frame=33839 fps=191 q=-0.0 size=N/A time=00:23:31.36 bitrate=N/A speed=7.95x    frame=33938 fps=191 q=-0.0 size=N/A time=00:23:35.49 bitrate=N/A speed=7.95x    frame=34032 fps=191 q=-0.0 size=N/A time=00:23:39.41 bitrate=N/A speed=7.95x    [Parsed_psnr_10 @ 000001f9842ab600] PSNR y:45.620228 u:51.123439 v:50.208162 average:46.746557 min:34.823719 max:inf
[out#0/null @ 000001f981f77f00] video:14630KiB audio:266268KiB subtitle:0KiB other streams:0KiB global headers:0KiB muxing overhead: unknown
frame=34047 fps=191 q=-0.0 Lsize=N/A time=00:23:40.04 bitrate=N/A speed=7.95x    
